#!OML:ASF X:\für Bonn\!DataBase\2005_08_11_Bastian_Final\c3d\Bastian.ASF
:FULLY-SPECIFIED
:DEGREES
47
root 26.0256 17.2096 -2.17992 364.336 -80.1394 -15.9286
lowerback 13.1844 -1.233 3.58182
upperback 12.4857 -2.21337 2.11301
thorax 5.86801 -1.28616 0.365843
lowerneck 1.0066 -4.27953 -4.02534
upperneck 15.164 -6.80064 5.95677
head 4.71028 -3.38063 2.22444
rclavicle 2.04748e-014 -9.54166e-015
rhumerus -15.6763 15.1085 -82.4729
rradius 32.5171
rwrist -3.53261
rhand -18.9807 -0.566537
rfingers 7.12502
rthumb 7.32379 -30.4198
lclavicle 2.04748e-014 -9.54166e-015
lhumerus -13.5701 -16.5501 90.9885
lradius 22.7462
lwrist 19.9294
lhand -13.6507 -6.58287
lfingers 7.12502
lthumb 12.4659 23.0253
rfemur -16.8373 2.98475 23.5901
rtibia 31.5082
rfoot -0.965441 -6.28062
rtoes -12.5057
lfemur 8.85095 -1.02018 -15.1175
ltibia 47.0035
lfoot -5.95908 -15.5688
ltoes -21.0966
48
root 25.946 17.2126 -2.19873 364.227 -79.9216 -15.9146
lowerback 13.6927 -1.21592 3.80993
upperback 12.5895 -2.16786 2.15386
thorax 5.71032 -1.25852 0.29228
lowerneck 1.05837 -4.37182 -3.93164
upperneck 14.9857 -6.90144 5.88871
head 4.64738 -3.42775 2.18625
rclavicle -4.65156e-014 2.66371e-014
rhumerus -15.0681 15.2997 -82.2778
rradius 32.2085
rwrist -3.3085
rhand -19.2507 -0.503654
rfingers 7.12502
rthumb 7.06316 -30.3658
lclavicle -4.65156e-014 2.66371e-014
lhumerus -13.5144 -16.0908 90.9472
lradius 21.8991
lwrist 19.4043
lhand -13.5752 -6.11771
lfingers 7.12502
lthumb 12.5387 23.4861
rfemur -16.5128 2.72427 23.7473
rtibia 31.6187
rfoot -0.745107 -6.31206
rtoes -12.2454
lfemur 7.71608 -1.04784 -14.9441
ltibia 49.2421
lfoot -4.75422 -15.1182
ltoes -20.8027
49
root 25.8681 17.2187 -2.21747 364.161 -79.7253 -15.9425
lowerback 14.1868 -1.17714 4.00146
upperback 12.7018 -2.09896 2.23982
thorax 5.57503 -1.22447 0.283452
lowerneck 1.17614 -4.46344 -3.84023
upperneck 14.7135 -6.98864 5.77496
head 4.54258 -3.47203 2.13781
rclavicle -2.52457e-014 -2.8625e-014
rhumerus -14.4495 15.4058 -81.9968
rradius 31.9205
rwrist -3.0517
rhand -19.5176 -0.421085
rfingers 7.12502
rthumb 6.80548 -30.2917
lclavicle -2.52457e-014 -2.8625e-014
lhumerus -13.4202 -15.4391 90.9495
lradius 20.9763
lwrist 18.6402
lhand -13.3582 -5.79983
lfingers 7.12502
lthumb 12.7479 23.791
rfemur -16.1819 2.4051 23.9105
rtibia 31.6971
rfoot -0.586077 -6.26697
rtoes -11.559
lfemur 6.60297 -1.03927 -14.7664
ltibia 51.3818
lfoot -3.75491 -14.5534
ltoes -21.4652
50
root 25.7908 17.2288 -2.23567 364.004 -79.5548 -15.8668
lowerback 14.6484 -1.13692 4.1816
upperback 12.8529 -2.03386 2.30427
thorax 5.50156 -1.19235 0.256368
lowerneck 1.13736 -4.56516 -3.75087
upperneck 14.5179 -7.09219 5.67852
head 4.48869 -3.51953 2.08976
rclavicle 1.55052e-014 -2.22639e-014
rhumerus -13.7641 15.6182 -81.7207
rradius 31.6428
rwrist -2.87412
rhand -19.8514 -0.363961
rfingers 7.12502
rthumb 6.48328 -30.2447
lclavicle 1.55052e-014 -2.22639e-014
lhumerus -13.2542 -14.7605 90.8945
lradius 20.11
lwrist 17.8354
lhand -13.0773 -5.51694
lfingers 7.12502
lthumb 13.0187 24.0568
rfemur -15.8292 2.09366 24.0465
rtibia 31.7057
rfoot -0.433506 -6.20707
rtoes -10.6526
lfemur 5.49697 -0.991218 -14.6047
ltibia 53.4089
lfoot -3.11693 -13.8776
ltoes -22.3456
51
root 25.7148 17.2396 -2.25474 363.905 -79.3937 -15.8552
lowerback 15.1317 -1.0797 4.35451
upperback 12.9964 -1.94469 2.39247
thorax 5.41168 -1.15024 0.256171
lowerneck 1.13803 -4.66974 -3.68746
upperneck 14.3008 -7.20375 5.61771
head 4.42396 -3.57173 2.05801
rclavicle -1.90833e-014 -2.78299e-014
rhumerus -13.0901 15.7875 -81.4077
rradius 31.3739
rwrist -2.76287
rhand -20.1255 -0.323052
rfingers 7.12502
rthumb 6.21868 -30.2118
lclavicle -1.90833e-014 -2.78299e-014
lhumerus -13.1427 -14.2324 90.8713
lradius 19.3367
lwrist 17.2004
lhand -12.8252 -5.32426
lfingers 7.12502
lthumb 13.2617 24.2338
rfemur -15.4393 1.8079 24.1874
rtibia 31.6302
rfoot -0.354687 -6.16412
rtoes -9.66065
lfemur 4.42511 -0.904744 -14.4241
ltibia 55.2972
lfoot -2.84382 -13.0293
ltoes -23.5712
52
root 25.6404 17.2552 -2.2731 363.798 -79.2427 -15.809
lowerback 15.5682 -1.03665 4.49768
upperback 13.1771 -1.88503 2.49072
thorax 5.39031 -1.126 0.283794
lowerneck 1.06699 -4.76572 -3.6984
upperneck 14.0497 -7.29819 5.57925
head 4.36325 -3.61628 2.04437
rclavicle -2.24627e-014 3.89618e-014
rhumerus -12.3109 16.1643 -81.048
rradius 31.09
rwrist -2.76892
rhand -20.399 -0.422591
rfingers 7.12502
rthumb 5.95465 -30.3189
lclavicle -2.24627e-014 3.89618e-014
lhumerus -12.9215 -13.435 90.8113
lradius 18.5312
lwrist 16.3243
lhand -12.5379 -5.2341
lfingers 7.12502
lthumb 13.5386 24.3058
rfemur -15.052 1.51329 24.3076
rtibia 31.4981
rfoot -0.28432 -6.08252
rtoes -8.76923
lfemur 3.37422 -0.828695 -14.2754
ltibia 56.9764
lfoot -2.66428 -12.0259
ltoes -24.3167
53
root 25.5699 17.2718 -2.29164 363.599 -79.0478 -15.7038
lowerback 16.0828 -1.00461 4.63832
upperback 13.3473 -1.83398 2.59661
thorax 5.31801 -1.10799 0.323859
lowerneck 1.01652 -4.87041 -3.78904
upperneck 13.8379 -7.41641 5.61453
head 4.31762 -3.67361 2.06538
rclavicle 3.35946e-014 -8.74653e-015
rhumerus -11.5538 16.5581 -80.6693
rradius 30.8158
rwrist -2.84394
rhand -20.6725 -0.523282
rfingers 7.12502
rthumb 5.69059 -30.4269
lclavicle 3.35946e-014 -8.74653e-015
lhumerus -12.7249 -12.5941 90.7571
lradius 17.7509
lwrist 15.3709
lhand -12.2829 -5.25462
lfingers 7.12502
lthumb 13.7843 24.2687
rfemur -14.6134 1.14803 24.4135
rtibia 31.3371
rfoot -0.300359 -5.99953
rtoes -8.25854
lfemur 2.41667 -0.775385 -14.1295
ltibia 58.412
lfoot -2.52497 -10.9857
ltoes -24.5972
54
root 25.5024 17.2878 -2.30961 363.315 -78.8352 -15.4558
lowerback 16.5688 -0.979751 4.7696
upperback 13.4976 -1.78938 2.6854
thorax 5.23928 -1.09194 0.350975
lowerneck 1.02344 -4.98773 -3.84229
upperneck 13.5478 -7.54845 5.64876
head 4.23821 -3.73756 2.08193
rclavicle -3.27995e-014 3.18055e-015
rhumerus -10.8829 16.9197 -80.305
rradius 30.6791
rwrist -2.96941
rhand -20.9043 -0.664651
rfingers 7.12502
rthumb 5.46672 -30.5741
lclavicle -3.27995e-014 3.18055e-015
lhumerus -12.5894 -11.9147 90.6991
lradius 17.1158
lwrist 14.633
lhand -12.0176 -5.1918
lfingers 7.12502
lthumb 14.04 24.314
rfemur -14.2531 0.800663 24.4757
rtibia 31.2097
rfoot -0.372282 -5.89771
rtoes -7.69001
lfemur 1.47311 -0.715118 -14.0316
ltibia 59.5602
lfoot -2.45952 -9.9606
ltoes -24.08
55
root 25.4389 17.3009 -2.32816 362.891 -78.5986 -15.1116
lowerback 17.14 -0.9687 4.85704
upperback 13.6503 -1.7645 2.80126
thorax 5.12189 -1.09268 0.43572
lowerneck 1.01687 -5.08016 -3.99085
upperneck 13.311 -7.65282 5.71811
head 4.1808 -3.79056 2.12485
rclavicle 1.11319e-014 6.36111e-015
rhumerus -10.2207 17.3261 -79.8866
rradius 30.5676
rwrist -3.17977
rhand -21.1819 -0.794719
rfingers 7.12502
rthumb 5.19872 -30.7109
lclavicle 1.11319e-014 6.36111e-015
lhumerus -12.4625 -11.2013 90.6769
lradius 16.5436
lwrist 13.9463
lhand -11.8029 -5.14505
lfingers 7.12502
lthumb 14.2469 24.3463
rfemur -13.8861 0.449945 24.5194
rtibia 31.1321
rfoot -0.500209 -5.82458
rtoes -7.49771
lfemur 0.638292 -0.695824 -13.9686
ltibia 60.4088
lfoot -2.43875 -8.993
ltoes -22.266
56
root 25.3763 17.3096 -2.34623 362.457 -78.3452 -14.7195
lowerback 17.6543 -0.958131 4.96358
upperback 13.8127 -1.7396 2.88306
thorax 5.04554 -1.08893 0.47201
lowerneck 1.0764 -5.18552 -4.02654
upperneck 12.9812 -7.77159 5.77708
head 4.08064 -3.84779 2.1489
rclavicle 1.31198e-014 -1.11319e-014
rhumerus -9.48576 17.4411 -79.5163
rradius 30.2868
rwrist -3.04717
rhand -21.4403 -0.782161
rfingers 7.12502
rthumb 4.94924 -30.7044
lclavicle 1.31198e-014 -1.11319e-014
lhumerus -12.3256 -10.5925 90.5963
lradius 16.0415
lwrist 13.2555
lhand -11.5437 -5.08435
lfingers 7.12502
lthumb 14.4967 24.3892
rfemur -13.6137 0.105283 24.5397
rtibia 31.1519
rfoot -0.69862 -5.75258
rtoes -7.05896
lfemur -0.132493 -0.679523 -13.9342
ltibia 60.9396
lfoot -2.45509 -8.12205
ltoes -20.0627
57
root 25.315 17.3139 -2.36388 362.305 -78.1155 -14.587
lowerback 18.1538 -0.938982 5.13939
upperback 13.9556 -1.69134 2.96285
thorax 4.95692 -1.06752 0.464223
lowerneck 1.14128 -5.30801 -3.99686
upperneck 12.3733 -7.87507 5.60358
head 4.33405 -3.92654 2.31314
rclavicle 1.15295e-014 3.97569e-015
rhumerus -8.76759 17.3429 -79.1782
rradius 29.922
rwrist -2.76604
rhand -21.6774 -0.689548
rfingers 7.12502
rthumb 4.72031 -30.617
lclavicle 1.15295e-014 3.97569e-015
lhumerus -12.2635 -10.1697 90.5131
lradius 15.67
lwrist 12.774
lhand -11.4079 -5.0954
lfingers 7.12502
lthumb 14.6275 24.3687
rfemur -13.4078 -0.120571 24.6177
rtibia 31.2463
rfoot -0.997105 -5.8067
rtoes -6.65853
lfemur -0.843263 -0.637167 -13.8616
ltibia 61.1767
lfoot -2.70581 -7.46827
ltoes -19.1955
58
root 25.2555 17.3161 -2.3812 361.946 -77.8809 -14.2693
lowerback 18.6947 -0.913925 5.27158
upperback 14.1078 -1.63887 3.04683
thorax 4.86028 -1.04852 0.485294
lowerneck 1.16341 -5.44509 -3.95812
upperneck 12.1102 -8.03376 5.58753
head 4.24074 -4.00148 2.29524
rclavicle -1.15295e-014 -1.43125e-014
rhumerus -8.06737 17.3078 -78.7998
rradius 29.5869
rwrist -2.5258
rhand -21.8966 -0.626235
rfingers 7.12502
rthumb 4.50861 -30.5583
lclavicle -1.15295e-014 -1.43125e-014
lhumerus -12.2616 -9.96288 90.4705
lradius 15.4368
lwrist 12.4979
lhand -11.3486 -5.1912
lfingers 7.12502
lthumb 14.6846 24.2688
rfemur -13.2039 -0.353179 24.6548
rtibia 31.3885
rfoot -1.30244 -5.85193
rtoes -6.58319
lfemur -1.4558 -0.59745 -13.8393
ltibia 61.1527
lfoot -3.16332 -7.04638
ltoes -18.9025
59
root 25.1962 17.3203 -2.39863 361.492 -77.6461 -13.8459
lowerback 19.2243 -0.884166 5.39581
upperback 14.2523 -1.57806 3.10718
thorax 4.76197 -1.02393 0.483772
lowerneck 1.21581 -5.58264 -3.87113
upperneck 11.8404 -8.19729 5.58958
head 4.1382 -4.07715 2.2759
rclavicle -4.01545e-014 3.73715e-014
rhumerus -7.38752 17.2395 -78.4609
rradius 29.2682
rwrist -2.39708
rhand -22.1346 -0.582525
rfingers 7.12502
rthumb 4.27878 -30.5193
lclavicle -4.01545e-014 3.73715e-014
lhumerus -12.3023 -9.89559 90.412
lradius 15.2928
lwrist 12.3342
lhand -11.3688 -5.29284
lfingers 7.12502
lthumb 14.6652 24.1685
rfemur -13.0158 -0.568359 24.6643
rtibia 31.5406
rfoot -1.59294 -5.90943
rtoes -6.39912
lfemur -2.02929 -0.556645 -13.8613
ltibia 60.9021
lfoot -3.77331 -6.81213
ltoes -19.5317
